HIERARCHY
ROOT Hips
{
	OFFSET 0.000000 0.000000 0.000000
	CHANNELS 6 Xposition Yposition Zposition Zrotation Yrotation Xrotation 
	JOINT LHipJoint
	{
		OFFSET 0.000000 0.000000 0.000000
		CHANNELS 3 Zrotation Yrotation Xrotation
		JOINT LeftUpLeg
		{
			OFFSET 1.363060 -1.794630 0.839290
			CHANNELS 3 Zrotation Yrotation Xrotation
			JOINT LeftLeg
			{
				OFFSET 2.448110 -6.726130 0.000000
				CHANNELS 3 Zrotation Yrotation Xrotation
				JOINT LeftFoot
				{
					OFFSET 2.562200 -7.039590 0.000000
					CHANNELS 3 Zrotation Yrotation Xrotation
					JOINT LeftToeBase
					{
						OFFSET 0.157640 -0.433110 2.322550
						CHANNELS 3 Zrotation Yrotation Xrotation
						End Site
						{
							OFFSET 0.000000 0.000000 0.000000
						}
					}
				}
			}
		}
	}
	JOINT RHipJoint
	{
		OFFSET 0.000000 0.000000 0.000000
		CHANNELS 3 Zrotation Yrotation Xrotation
		JOINT RightUpLeg
		{
			OFFSET -1.305520 -1.794630 0.839290
			CHANNELS 3 Zrotation Yrotation Xrotation
			JOINT RightLeg
			{
				OFFSET -2.542530 -6.985550 0.000000
				CHANNELS 3 Zrotation Yrotation Xrotation
				JOINT RightFoot
				{
					OFFSET -2.568260 -7.056230 0.000000
					CHANNELS 3 Zrotation Yrotation Xrotation
					JOINT RightToeBase
					{
						OFFSET -0.164730 -0.452590 2.363150
						CHANNELS 3 Zrotation Yrotation Xrotation
						End Site
						{
							OFFSET 0.000000 0.000000 0.000000
						}
					}
				}
			}
		}
	}
	JOINT LowerBack
	{
		OFFSET 0.000000 0.000000 0.000000
		CHANNELS 3 Zrotation Yrotation Xrotation
		JOINT Spine
		{
			OFFSET 0.028270 2.035590 -0.193380
			CHANNELS 3 Zrotation Yrotation Xrotation
			JOINT Spine1
			{
				OFFSET 0.056720 2.048850 -0.042750
				CHANNELS 3 Zrotation Yrotation Xrotation
				JOINT Neck
				{
					OFFSET 0.000000 0.000000 0.000000
					CHANNELS 3 Zrotation Yrotation Xrotation
					JOINT Neck1
					{
						OFFSET -0.054170 1.746240 0.172020
						CHANNELS 3 Zrotation Yrotation Xrotation
						JOINT Head
						{
							OFFSET 0.104070 1.761360 -0.123970
							CHANNELS 3 Zrotation Yrotation Xrotation
							End Site
							{
								OFFSET 0.000000 0.000000 0.000000
							}
						}
					}
				}
				JOINT LeftShoulder
				{
					OFFSET 0.000000 0.000000 0.000000
					CHANNELS 3 Zrotation Yrotation Xrotation
					JOINT LeftArm
					{
						OFFSET 3.362410 1.200890 -0.311210
						CHANNELS 3 Zrotation Yrotation Xrotation
						JOINT LeftForeArm
						{
							OFFSET 4.983000 -0.000000 -0.000000
							CHANNELS 3 Zrotation Yrotation Xrotation
							JOINT LeftHand
							{
								OFFSET 3.483560 -0.000000 -0.000000
								CHANNELS 3 Zrotation Yrotation Xrotation
								JOINT LeftFingerBase
								{
									OFFSET 0.000000 0.000000 0.000000
									CHANNELS 3 Zrotation Yrotation Xrotation
									JOINT LeftHandIndex1
									{
										OFFSET 0.715260 -0.000000 -0.000000
										CHANNELS 3 Zrotation Yrotation Xrotation
										End Site
										{
											OFFSET 0.000000 0.000000 0.000000
										}
									}
								}
								JOINT LThumb
								{
									OFFSET 0.000000 0.000000 0.000000
									CHANNELS 3 Zrotation Yrotation Xrotation
									End Site
									{
										OFFSET 0.000000 0.000000 0.000000
									}
								}
							}
						}
					}
				}
				JOINT RightShoulder
				{
					OFFSET 0.000000 0.000000 0.000000
					CHANNELS 3 Zrotation Yrotation Xrotation
					JOINT RightArm
					{
						OFFSET -3.136600 1.374050 -0.404650
						CHANNELS 3 Zrotation Yrotation Xrotation
						JOINT RightForeArm
						{
							OFFSET -5.241900 -0.000000 -0.000000
							CHANNELS 3 Zrotation Yrotation Xrotation
							JOINT RightHand
							{
								OFFSET -3.444170 -0.000000 -0.000000
								CHANNELS 3 Zrotation Yrotation Xrotation
								JOINT RightFingerBase
								{
									OFFSET 0.000000 0.000000 0.000000
									CHANNELS 3 Zrotation Yrotation Xrotation
									JOINT RightHandIndex1
									{
										OFFSET -0.622530 -0.000000 -0.000000
										CHANNELS 3 Zrotation Yrotation Xrotation
										End Site
										{
											OFFSET 0.000000 0.000000 0.000000
										}
									}
								}
								JOINT RThumb
								{
									OFFSET 0.000000 0.000000 0.000000
									CHANNELS 3 Zrotation Yrotation Xrotation
									End Site
									{
										OFFSET 0.000000 0.000000 0.000000
									}
								}
							}
						}
					}
				}
			}
		}
	}
}
MOTION
Frames: 6
Frame Time: 0.008333
-1.437342 16.897803 1.201861 -166.426120 83.386760 -148.896892 -11.786070 4.561167 2.357489 -4.266483 1.121357 -2.920057 -0.778829 1.190432 25.985044 0.194918 -1.780992 5.862784 -0.355400 -0.000000 -61.580600 8.739813 -0.976902 1.368693 11.363199 -9.931688 -40.870650 3.975537 -0.920933 16.287450 0.984788 5.225433 6.817606 0.778800 -0.000000 -49.625800 5.661419 -2.413697 -4.547158 0.548685 -2.968282 -3.614428 -6.535329 -2.826336 0.444407 4.048946 -12.092507 -11.630157 -5.294402 -0.379336 -1.188762 0.000000 0.000000 0.000000 7.809140 12.419360 -0.575283 -66.062544 -4.890027 20.577507 -178.028781 -56.801418 179.979860 2.489663 -1.647254 -0.049695 -0.110860 0.689356 -0.000000 0.000000 0.000000 0.000000 0.000000 0.000000 0.000000 14.153965 -5.757504 1.062977 71.417391 -5.372404 -9.834809 1.321140 62.999319 -0.012110 -6.115142 3.805158 -0.218059 0.126466 -0.219831 -0.000000 0.000000 0.000000 0.000000 0.000000 0.000000 0.000000 
-1.264405 16.845576 1.194119 -162.452847 83.267497 -145.289803 -11.995191 4.581335 2.187077 -3.441315 1.885235 -3.165711 -0.671053 1.328616 28.060873 0.222917 -1.913966 5.852509 -0.404699 0.000000 -59.496400 8.607166 -1.051302 1.089861 11.912922 -9.965019 -41.581561 3.825957 -1.370537 20.424736 0.950885 5.474880 5.014242 0.748799 0.000000 -46.741800 6.071142 -2.212795 -4.129210 0.609270 -2.784364 -3.580687 -6.472522 -2.644979 0.281944 4.029161 -11.488524 -11.495841 -5.407870 -0.388803 -1.164338 0.000000 0.000000 0.000000 7.825140 12.406184 -0.569840 -66.867940 -4.439078 19.598219 -178.062723 -56.601716 179.978605 2.588675 -2.003828 -0.060446 -0.108654 0.706600 -0.000000 0.000000 0.000000 0.000000 0.000000 0.000000 0.000000 14.453834 -5.049346 1.170635 70.731083 -5.112397 -9.534441 1.360572 61.856198 -0.015251 -7.244267 3.929727 -0.266072 0.135213 -0.217409 -0.000000 0.000000 0.000000 0.000000 0.000000 0.000000 0.000000 
-1.098902 16.802052 1.183421 -158.677649 83.015240 -141.889350 -12.222001 4.564163 1.999019 -2.554603 2.567522 -3.530149 -0.549294 1.476087 30.316232 0.269891 -1.824857 5.797824 -0.411800 -0.000000 -56.582500 8.463893 -1.130135 0.804669 12.479958 -10.012006 -41.917761 3.680134 -1.722289 23.899727 0.891704 5.525643 3.388538 0.670100 0.000000 -44.818200 6.476579 -2.023652 -3.667493 0.670898 -2.610115 -3.541424 -6.410824 -2.475314 0.104124 4.058291 -10.832028 -11.324662 -5.507437 -0.396840 -1.130674 0.000000 0.000000 0.000000 7.802866 12.373213 -0.551585 -67.851489 -3.936984 18.769890 -178.128758 -56.766455 179.977317 2.688163 -2.230058 -0.068418 -0.105190 0.715581 0.000000 0.000000 0.000000 0.000000 0.000000 0.000000 0.000000 14.768567 -4.321914 1.282884 70.076720 -4.710934 -9.147170 1.400796 60.533334 -0.018510 -8.435738 4.077649 -0.320697 0.143599 -0.215264 -0.000000 0.000000 0.000000 0.000000 0.000000 0.000000 0.000000 
-0.939957 16.768228 1.170556 -155.476677 82.612303 -139.051224 -12.453339 4.508767 1.810436 -1.635233 3.124941 -4.039185 -0.414997 1.628596 32.725278 0.338923 -1.449288 5.671695 -0.364000 0.000000 -52.934800 8.314848 -1.221439 0.522228 13.070164 -10.115340 -41.919747 3.558288 -1.979904 26.658235 0.811130 5.385836 1.949340 0.561400 -0.000000 -43.997000 6.870999 -1.850589 -3.194899 0.731632 -2.450333 -3.500240 -6.355771 -2.321357 -0.080089 4.130023 -10.150398 -11.126319 -5.588940 -0.403135 -1.089671 0.000000 0.000000 0.000000 7.711585 12.333714 -0.522731 -68.950240 -3.421150 18.112797 -178.223574 -57.290958 179.975776 2.816421 -2.291807 -0.073199 -0.102079 0.714938 -0.000000 0.000000 0.000000 0.000000 0.000000 0.000000 0.000000 15.085204 -3.603858 1.395092 69.484952 -4.174486 -8.663203 1.441705 59.052532 -0.021758 -9.628105 4.202621 -0.376534 0.151284 -0.213083 -0.000000 0.000000 0.000000 0.000000 0.000000 0.000000 0.000000 
-0.786376 16.744409 1.156943 -153.216554 82.060414 -137.127784 -12.665476 4.419711 1.639416 -0.743140 3.508031 -4.696957 -0.271086 1.781778 35.243142 0.433843 -0.727466 5.454098 -0.250500 -0.000000 -48.729500 8.176083 -1.322511 0.244633 13.658761 -10.335575 -41.656887 3.469593 -2.158460 28.736466 0.713813 5.086592 0.678666 0.441100 -0.000001 -44.213200 7.226966 -1.698051 -2.738755 0.785038 -2.308378 -3.459926 -6.314199 -2.185754 -0.262758 4.240615 -9.470013 -10.910476 -5.649914 -0.407564 -1.043214 0.000000 0.000000 0.000000 7.538668 12.297108 -0.486966 -70.093723 -2.922000 17.634799 -178.343588 -58.160948 179.973697 3.009623 -2.161929 -0.074388 -0.101056 0.703916 -0.000000 0.000000 0.000000 0.000000 0.000000 0.000000 0.000000 15.399726 -2.919952 1.501738 68.987052 -3.525061 -8.075981 1.482372 57.459676 -0.024877 -10.756255 4.257532 -0.425682 0.157997 -0.210653 -0.000000 0.000000 0.000000 0.000000 0.000000 0.000000 0.000000 
-0.637104 16.730307 1.143499 -151.966812 81.371815 -136.184109 -12.846776 4.303265 1.497192 0.087062 3.697757 -5.497270 -0.121377 1.933118 37.821573 0.557579 0.358560 5.118503 -0.070800 -0.000001 -44.089100 8.055648 -1.428970 -0.029315 14.226847 -10.704117 -41.178139 3.415723 -2.270992 30.190944 0.601726 4.645273 -0.438038 0.319700 -0.000001 -45.247500 7.533864 -1.565191 -2.314300 0.828434 -2.183263 -3.421175 -6.288899 -2.066892 -0.435147 4.377095 -8.831539 -10.691694 -5.686601 -0.409881 -0.994627 0.000000 0.000000 0.000000 7.268150 12.267875 -0.448727 -71.213564 -2.458109 17.326841 -178.484832 -59.343962 179.970756 3.308674 -1.821847 -0.071182 -0.103720 0.682497 -0.000000 0.000000 0.000000 0.000000 0.000000 0.000000 0.000000 15.690502 -2.306114 1.598413 68.615754 -2.762510 -7.375388 1.523472 55.793201 -0.027747 -11.752416 4.208983 -0.459836 0.163631 -0.207942 -0.000000 0.000000 0.000000 0.000000 0.000000 0.000000 0.000000 
